<svg xmlns="http://www.w3.org/2000/svg" viewBox="0 0 512 512" role="img" aria-labelledby="title">
  <title id="title">LetsEat icon</title>
  <rect width="512" height="512" rx="88" fill="#0f766e"/>
  <circle cx="256" cy="256" r="158" fill="#fffaf0"/>
  <path d="M168 174c34-28 82-38 126-21 69 27 101 106 71 174-30 69-111 100-179 68-25-12-46-31-59-54" fill="none" stroke="#c24a32" stroke-width="34" stroke-linecap="round"/>
  <path d="M150 280h150c27 0 49-22 49-49 0-27-22-49-49-49H150" fill="none" stroke="#0f766e" stroke-width="32" stroke-linecap="round"/>
  <path d="M171 214h106" stroke="#b7791f" stroke-width="28" stroke-linecap="round"/>
  <path d="M171 248h72" stroke="#b7791f" stroke-width="28" stroke-linecap="round"/>
  <path d="M350 128v252" stroke="#202124" stroke-width="24" stroke-linecap="round"/>
  <path d="M384 128v252" stroke="#202124" stroke-width="24" stroke-linecap="round"/>
</svg>
